<svg width="540" height="540" viewBox="0 0 540 540" fill="none" xmlns="http://www.w3.org/2000/svg">
<path d="M182.162 417.312L162.947 473.125" stroke="#373737" stroke-width="4" stroke-linecap="round"/>
<circle cx="213.19" cy="213.19" r="213.19" transform="matrix(-1 0 0 1 496 40.3401)" fill="#F49094"/>
<circle cx="10.5223" cy="10.5223" r="10.5223" transform="matrix(-1 0 0 1 203.207 168.437)" fill="#373737"/>
<circle cx="10.5223" cy="10.5223" r="10.5223" transform="matrix(-1 0 0 1 303.854 198.632)" fill="#373737"/>
<path d="M256.275 256.733C256.428 264.815 251.06 280.339 228.368 277.777C205.677 275.215 206.409 253.988 209.611 248.04" stroke="#373737" stroke-width="3" stroke-linecap="round"/>
<line y1="-2" x2="32.1808" y2="-2" transform="matrix(-0.966705 -0.255893 -0.255893 0.966705 261.765 205.036)" stroke="white" stroke-width="4"/>
<line y1="-2" x2="121.833" y2="-2" transform="matrix(-0.923742 0.383015 0.383015 0.923742 485.02 173.012)" stroke="white" stroke-width="4"/>
<line y1="-2" x2="42.1785" y2="-2" transform="matrix(-0.650791 -0.759257 -0.759257 0.650791 127.263 161.117)" stroke="white" stroke-width="4"/>
<path d="M345.943 499.66L333.134 439.271" stroke="#373737" stroke-width="4" stroke-linecap="round"/>
<path d="M467.636 394.437L448.421 338.623" stroke="#373737" stroke-width="4" stroke-linecap="round"/>
<path d="M78.7693 257.19L44.0001 302.024" stroke="#373737" stroke-width="4" stroke-linecap="round"/>
<circle cx="56.7287" cy="56.7287" r="54.7287" transform="matrix(-1 0 0 1 375.223 152.883)" stroke="white" stroke-width="4"/>
<circle cx="56.7287" cy="56.7287" r="54.7287" transform="matrix(-1 0 0 1 238.891 116.283)" stroke="white" stroke-width="4"/>
</svg>
