<svg width="452" height="460" viewBox="0 0 452 460" fill="none" xmlns="http://www.w3.org/2000/svg">
<g clip-path="url(#clip0_1873_3045)">
<path d="M138.162 376.972L118.947 432.785" stroke="#373737" stroke-width="4" stroke-linecap="round"/>
<circle cx="213.19" cy="213.19" r="213.19" transform="matrix(-1 0 0 1 452 0)" fill="#F49094"/>
<circle cx="10.5223" cy="10.5223" r="10.5223" transform="matrix(-1 0 0 1 159.207 128.097)" fill="#373737"/>
<circle cx="10.5223" cy="10.5223" r="10.5223" transform="matrix(-1 0 0 1 259.854 158.292)" fill="#373737"/>
<path d="M212.275 216.393C212.428 224.475 207.06 239.999 184.368 237.437C161.677 234.875 162.409 213.648 165.611 207.7" stroke="#373737" stroke-width="3" stroke-linecap="round"/>
<line y1="-2" x2="32.1808" y2="-2" transform="matrix(-0.966705 -0.255893 -0.255893 0.966705 217.765 164.696)" stroke="white" stroke-width="4"/>
<line y1="-2" x2="121.833" y2="-2" transform="matrix(-0.923742 0.383015 0.383015 0.923742 441.02 132.672)" stroke="white" stroke-width="4"/>
<line y1="-2" x2="42.1785" y2="-2" transform="matrix(-0.650791 -0.759257 -0.759257 0.650791 83.2632 120.777)" stroke="white" stroke-width="4"/>
<path d="M301.943 459.32L289.134 398.931" stroke="#373737" stroke-width="4" stroke-linecap="round"/>
<path d="M423.636 354.097L404.421 298.283" stroke="#373737" stroke-width="4" stroke-linecap="round"/>
<path d="M34.7693 216.85L5.75524e-05 261.684" stroke="#373737" stroke-width="4" stroke-linecap="round"/>
<circle cx="56.7287" cy="56.7287" r="54.7287" transform="matrix(-1 0 0 1 331.223 112.542)" stroke="white" stroke-width="4"/>
<circle cx="56.7287" cy="56.7287" r="54.7287" transform="matrix(-1 0 0 1 194.891 75.9433)" stroke="white" stroke-width="4"/>
</g>
<defs>
<clipPath id="clip0_1873_3045">
<rect width="452" height="459.32" fill="white"/>
</clipPath>
</defs>
</svg>
